<svg width="21" height="22" viewBox="0 0 21 22" fill="none" xmlns="http://www.w3.org/2000/svg">
<g clip-path="url(#clip0_688_82)">
<path d="M10.686 21.6758C10.7549 21.6561 10.8142 21.6265 10.8831 21.5872L18.6012 17.1909C19.5179 16.6684 20.0107 16.1362 20.0107 14.7069V7.0282C20.0107 6.73249 19.9911 6.49592 19.9319 6.27906L10.686 11.5625V21.6758ZM9.33552 21.6758V11.5625L0.0895989 6.27906C0.0304564 6.49592 0.0107422 6.73249 0.0107422 7.0282V14.7069C0.0107422 16.1362 0.513454 16.6684 1.42031 17.1909L9.14828 21.5872C9.20741 21.6265 9.26655 21.6561 9.33552 21.6758ZM10.0157 10.3796L14.2246 7.9942L4.89 2.66151L1.27245 4.72164C1.0556 4.83993 0.878166 4.95821 0.720453 5.10606L10.0157 10.3796ZM15.5948 7.21548L19.3011 5.10606C19.1532 4.95821 18.9758 4.83993 18.759 4.72164L11.7998 0.75909C11.1986 0.414092 10.5972 0.226807 10.0157 0.226807C9.42426 0.226807 8.82301 0.414092 8.2217 0.75909L6.22071 1.89266L15.5948 7.21548Z" fill="#D4D4D4"/>
</g>
<defs>
<clipPath id="clip0_688_82">
<rect width="20" height="21.6757" fill="white" transform="translate(0.0107422)"/>
</clipPath>
</defs>
</svg>
