<svg width="20" height="22" viewBox="0 0 20 22" fill="none" xmlns="http://www.w3.org/2000/svg">
<path opacity="0.7" d="M1.38682 16.9465L9.18276 21.3645C9.73745 21.6815 10.2625 21.6815 10.8271 21.3645L18.6131 16.9465C19.5245 16.4314 20 15.9064 20 14.4898V6.64437C20 5.61416 19.6235 4.97027 18.7915 4.49479L11.7781 0.512629C10.5795 -0.170876 9.42046 -0.170876 8.22187 0.512629L1.21843 4.49479C0.376423 4.97027 0 5.61416 0 6.64437V14.4898C0 15.9064 0.485388 16.4314 1.38682 16.9465ZM2.27835 15.6389C1.70381 15.3219 1.50569 14.9851 1.50569 14.4403V6.96136L9.22241 11.3695V19.5914L2.27835 15.6389ZM17.7316 15.6389L10.7776 19.5914V11.3695L18.4943 6.96136V14.4403C18.4943 14.9851 18.2961 15.3219 17.7316 15.6389ZM10.0049 9.98267L2.3576 5.65378L5.41852 3.90044L13.0658 8.24911L10.0049 9.98267ZM14.6607 7.34769L6.98364 3.00891L8.88555 1.92917C9.64835 1.49331 10.3516 1.48341 11.1243 1.92917L17.6523 5.65378L14.6607 7.34769Z" fill="#D4D4D4"/>
</svg>
